<svg xmlns="http://www.w3.org/2000/svg" viewBox="0 0 420 420" role="img" aria-labelledby="title desc">
  <title id="title">Logo Comedor Alexandra</title>
  <desc id="desc">Caricatura de una senora cocinera sonriendo con gorro de chef.</desc>
  <defs>
    <linearGradient id="bg" x1="0" y1="0" x2="1" y2="1">
      <stop offset="0%" stop-color="#ffe5d2" />
      <stop offset="100%" stop-color="#ffc08c" />
    </linearGradient>
    <linearGradient id="apron" x1="0" y1="0" x2="0" y2="1">
      <stop offset="0%" stop-color="#d2691e" />
      <stop offset="100%" stop-color="#8b4513" />
    </linearGradient>
  </defs>

  <circle cx="210" cy="210" r="198" fill="url(#bg)" />
  <ellipse cx="210" cy="312" rx="132" ry="78" fill="url(#apron)" />
  <rect x="112" y="254" width="196" height="98" rx="26" fill="url(#apron)" />
  <circle cx="210" cy="188" r="94" fill="#ffd8b2" />

  <path d="M126 140c-10-38 26-66 66-62-8-28 20-52 52-42 8-18 28-26 46-18 18 8 24 28 16 46 30 2 52 26 48 54-4 30-34 50-66 46H152c-14 0-24-8-26-24z" fill="#ffffff" />

  <path d="M140 190c16-26 52-44 70-42 16 2 50 16 68 38-16-8-36-14-68-14-30 0-50 6-70 18z" fill="#5a321d" />
  <circle cx="176" cy="192" r="8" fill="#2f1d12" />
  <circle cx="244" cy="192" r="8" fill="#2f1d12" />
  <path d="M176 232c22 18 50 18 72 0" stroke="#a44a2e" stroke-width="8" fill="none" stroke-linecap="round" />
  <circle cx="154" cy="214" r="12" fill="#f1a889" opacity="0.7" />
  <circle cx="266" cy="214" r="12" fill="#f1a889" opacity="0.7" />

  <circle cx="106" cy="244" r="28" fill="#ffd8b2" />
  <circle cx="314" cy="244" r="28" fill="#ffd8b2" />
  <rect x="192" y="288" width="36" height="46" rx="12" fill="#f3c89e" />

  <text x="210" y="374" font-size="36" text-anchor="middle" fill="#fff7ef" font-family="Verdana, sans-serif" font-weight="700">ALEXANDRA</text>
</svg>
